<svg width="32" height="32" viewBox="0 0 32 32" fill="none" xmlns="http://www.w3.org/2000/svg">
<path d="M24.1535 12.6707C23.1025 13.4192 21.8166 13.8594 20.428 13.8594C16.877 13.8594 13.9983 10.9807 13.9983 7.42971C13.9983 3.87868 16.877 1 20.428 1C23.979 1 26.8577 3.87868 26.8577 7.42971C26.8577 8.81835 26.4175 10.1042 25.669 11.1552L29.4015 14.8877C29.82 15.3062 29.82 15.9847 29.4015 16.4032C28.983 16.8217 28.3045 16.8217 27.886 16.4032L24.1535 12.6707ZM24.7145 7.42971C24.7145 5.06236 22.7954 3.14324 20.428 3.14324C18.0606 3.14324 16.1415 5.06236 16.1415 7.42971C16.1415 9.79707 18.0606 11.7162 20.428 11.7162C22.7954 11.7162 24.7145 9.79707 24.7145 7.42971ZM24.0012 14.5391V29.9265C24.0012 30.7998 23.0127 31.3064 22.3038 30.7964L14.0006 24.8225L5.69746 30.7964C4.98857 31.3064 4 30.7998 4 29.9265V8.49994C4 5.9353 6.07905 3.85625 8.64368 3.85625H13.4271C12.8788 4.92831 12.5695 6.14289 12.5695 7.42971C12.5695 11.7699 16.0878 15.2882 20.428 15.2882C21.686 15.2882 22.875 14.9926 23.9292 14.4671L24.0012 14.5391Z" fill="#737373"/>
</svg>
