<svg width="32" height="29" viewBox="0 0 32 29" fill="none" xmlns="http://www.w3.org/2000/svg">
<path d="M6.21967 4.89411C5.9534 5.16037 5.9292 5.57704 6.14705 5.87065L6.21967 5.95477L10.2542 9.98934C8.33225 11.3388 6.89577 13.3544 6.29888 15.7388C6.1983 16.1406 6.4425 16.5479 6.84431 16.6485C7.24613 16.7491 7.6534 16.5049 7.75399 16.1031C8.28346 13.9879 9.59112 12.2139 11.3342 11.069L13.1438 12.8787C12.4363 13.6002 12 14.5887 12 15.6791C12 17.8882 13.7909 19.6791 16 19.6791C17.0904 19.6791 18.0788 19.2428 18.8004 18.5353L24.7197 24.4548C25.0126 24.7477 25.4874 24.7477 25.7803 24.4548C26.0466 24.1885 26.0708 23.7718 25.8529 23.4782L25.7803 23.3941L19.6668 17.2799L19.668 17.2784L12.7188 10.3323L12.72 10.3304L11.5867 9.19993L7.28033 4.89411C6.98744 4.60122 6.51256 4.60122 6.21967 4.89411ZM16 8.17444C14.9997 8.17444 14.0291 8.32251 13.1111 8.59944L14.3481 9.83563C14.8839 9.72976 15.4364 9.67444 16 9.67444C19.9231 9.67444 23.3099 12.3547 24.2471 16.1076C24.3475 16.5095 24.7546 16.7539 25.1565 16.6535C25.5584 16.5532 25.8028 16.146 25.7024 15.7441C24.5994 11.3272 20.6155 8.17444 16 8.17444ZM16.1947 11.6837L19.996 15.4844C19.8942 13.4275 18.2472 11.7821 16.1947 11.6837Z" fill="#242424"/>
</svg>
