<svg width="21" height="21" viewBox="0 0 21 21" fill="none" xmlns="http://www.w3.org/2000/svg">
<path d="M9.625 16.625V17.5C9.625 17.9832 9.23325 18.375 8.75 18.375H7V19.25C7 20.2165 6.2165 21 5.25 21H1.75C0.783501 21 0 20.2165 0 19.25V16.9874C0 16.5233 0.184374 16.0782 0.512563 15.75L7.28383 8.97874C7.09899 8.35049 7 7.68619 7 7C7 3.13401 10.134 0 14 0C17.866 0 21 3.13401 21 7C21 10.866 17.866 14 14 14H12.25V15.75C12.25 16.2332 11.8582 16.625 11.375 16.625H9.625ZM15.75 7C16.7165 7 17.5 6.2165 17.5 5.25C17.5 4.2835 16.7165 3.5 15.75 3.5C14.7835 3.5 14 4.2835 14 5.25C14 6.2165 14.7835 7 15.75 7Z" fill="#717171"/>
</svg>
