<svg width="39" height="39" viewBox="0 0 39 39" fill="none" xmlns="http://www.w3.org/2000/svg">
<path d="M36.2366 37.2461C35.1782 38.2352 33.5361 38.2408 32.471 37.2589L24.6784 30.0756C24.3824 29.7796 22.0451 31.7527 20.5122 32.2839C18.9945 32.8151 17.3932 33.0807 15.7086 33.0807C13.5534 33.0807 11.5272 32.6558 9.63003 31.8058C7.73286 30.9407 6.06335 29.7569 4.6215 28.2543C3.17966 26.7366 2.04894 24.976 1.22937 22.9726C0.409789 20.9692 0 18.8292 0 16.5526C0 14.276 0.409789 12.1436 1.22937 10.1553C2.04894 8.15192 3.17966 6.39134 4.6215 4.87361C6.06335 3.35587 7.73286 2.17204 9.63003 1.32211C11.5272 0.456999 13.5534 0.0244446 15.7086 0.0244446C17.8789 0.0244446 19.9127 0.456999 21.8099 1.32211C23.707 2.17204 25.3765 3.35587 26.8184 4.87361C28.2602 6.39134 29.3834 8.15192 30.1878 10.1553C31.0073 12.1436 31.4171 14.276 31.4171 16.5526C31.4171 18.3283 31.1591 20.0206 30.6431 21.6294C30.127 23.223 28.0591 25.511 28.5258 26.046L36.2296 33.1951C37.4068 34.2876 37.41 36.1495 36.2366 37.2461ZM15.7086 27.5258C16.5888 27.5258 17.454 27.3968 18.3039 27.1388C19.1538 26.8656 20.8096 25.8141 21.521 25.1026C21.521 25.1026 22.9294 23.5978 23.4775 22.9683C23.836 22.5565 24.3824 21.9026 24.3824 21.9026C24.8681 21.1134 25.2323 20.2634 25.4752 19.3528C25.7332 18.4422 25.8622 17.5088 25.8622 16.5526C25.8622 15.0348 25.5966 13.6158 25.0654 12.2953C24.5342 10.9749 23.7981 9.81384 22.8571 8.81213C21.9313 7.79525 20.8537 7.00603 19.6243 6.44446C18.4101 5.86772 17.1049 5.57935 15.7086 5.57935C14.3122 5.57935 12.9994 5.86772 11.77 6.44446C10.5407 7.0212 9.45549 7.81801 8.51449 8.8349C7.58868 9.8366 6.86016 10.9977 6.32896 12.3181C5.81293 13.6385 5.55491 15.05 5.55491 16.5526C5.55491 18.0551 5.82052 19.4742 6.35172 20.8098C6.88293 22.1303 7.61144 23.2989 8.53726 24.3158C9.47826 25.3175 10.5558 26.1067 11.77 26.6835C12.9994 27.245 14.3122 27.5258 15.7086 27.5258Z" fill="#373737"/>
<path d="M24.7859 27.2265C23.9995 27.9028 22.8035 27.8228 22.126 27.0375C21.5526 26.3728 20.9307 25.6218 20.4103 24.8841C19.4771 23.5611 20.0868 21.9937 21.0672 20.7052C21.5229 20.1065 21.906 19.4406 22.2129 18.644C22.7045 17.4649 22.8323 16.2441 22.5965 14.9816C22.3489 13.7055 21.787 12.5579 20.9106 11.539C20.0577 10.5472 19.0352 9.86662 17.8433 9.49724C16.6653 9.11585 15.4531 9.04756 14.2066 9.29237C12.9741 9.52518 11.8552 10.0738 10.8502 10.9382C9.84513 11.8026 9.1283 12.8327 8.69971 14.0285C8.28507 15.2123 8.17817 16.4151 8.37898 17.6369C8.47698 18.2332 8.65265 18.802 8.90598 19.3435C9.35843 20.3106 9.30344 21.5216 8.49394 22.2178C7.68445 22.914 6.44341 22.8307 5.8987 21.9124C5.25188 20.822 4.82515 19.6476 4.61852 18.3893C4.30902 16.5047 4.47394 14.6493 5.11326 12.8232C5.76654 10.9851 6.86093 9.40568 8.39644 8.08509C9.94591 6.75249 11.6713 5.90677 13.5725 5.54793C15.4877 5.17708 17.3539 5.28567 19.171 5.87371C20.988 6.46175 22.5451 7.5098 23.8421 9.01785C25.1624 10.5531 25.9996 12.303 26.3535 14.2675C26.6958 16.2185 26.5007 18.1235 25.7682 19.9825C25.3695 20.9872 24.0908 21.934 24.2562 22.9735C24.3382 23.4883 24.6434 24.0329 25.0172 24.5521C25.6232 25.3938 25.5723 26.5502 24.7859 27.2265Z" fill="#30A8CE"/>
</svg>
