<svg width="30" height="30" viewBox="0 0 30 30" fill="none" xmlns="http://www.w3.org/2000/svg">
<path fill-rule="evenodd" clip-rule="evenodd" d="M17.3067 3.10345H12.691C12.3849 3.10345 12.0914 3.21244 11.875 3.40644C11.6586 3.60044 11.537 3.86357 11.537 4.13793V5.17241H18.4607V4.13793C18.4607 3.86357 18.3391 3.60044 18.1227 3.40644C17.9063 3.21244 17.6128 3.10345 17.3067 3.10345ZM21.9225 5.17241V4.13793C21.9225 3.04048 21.4362 1.98798 20.5705 1.21197C19.7049 0.43596 18.5309 0 17.3067 0H12.691C11.4668 0 10.2928 0.43596 9.42716 1.21197C8.56154 1.98798 8.07524 3.04048 8.07524 4.13793V5.17241H1.7309C1.27184 5.17241 0.831577 5.3359 0.506969 5.6269C0.182362 5.91791 0 6.3126 0 6.72414C0 7.13568 0.182362 7.53037 0.506969 7.82137C0.831577 8.11238 1.27184 8.27586 1.7309 8.27586H2.45096L3.18255 24.0517C3.25699 25.6519 4.01855 27.1644 5.308 28.273C6.59746 29.3815 8.315 30.0003 10.1015 30H19.8985C21.6846 29.9998 23.4016 29.3808 24.6905 28.2723C25.9795 27.1638 26.7407 25.6516 26.8151 24.0517L27.549 8.27586H28.2691C28.7282 8.27586 29.1684 8.11238 29.493 7.82137C29.8176 7.53037 30 7.13568 30 6.72414C30 6.3126 29.8176 5.91791 29.493 5.6269C29.1684 5.3359 28.7282 5.17241 28.2691 5.17241H21.9225ZM24.0826 8.27586H5.91507L6.64205 23.9214C6.67898 24.7217 7.05963 25.4782 7.70439 26.0327C8.34915 26.5872 9.20808 26.8967 10.1015 26.8966H19.8985C20.7915 26.8962 21.6499 26.5864 22.2941 26.032C22.9384 25.4775 23.3187 24.7213 23.3556 23.9214L24.0826 8.27586ZM9.80614 12.4138V22.7586C9.80614 23.1702 9.9885 23.5649 10.3131 23.8559C10.6377 24.1469 11.078 24.3103 11.537 24.3103C11.9961 24.3103 12.4364 24.1469 12.761 23.8559C13.0856 23.5649 13.2679 23.1702 13.2679 22.7586V12.4138C13.2679 12.0023 13.0856 11.6076 12.761 11.3166C12.4364 11.0256 11.9961 10.8621 11.537 10.8621C11.078 10.8621 10.6377 11.0256 10.3131 11.3166C9.9885 11.6076 9.80614 12.0023 9.80614 12.4138ZM18.4607 10.8621C18.9197 10.8621 19.36 11.0256 19.6846 11.3166C20.0092 11.6076 20.1916 12.0023 20.1916 12.4138V22.7586C20.1916 23.1702 20.0092 23.5649 19.6846 23.8559C19.36 24.1469 18.9197 24.3103 18.4607 24.3103C18.0016 24.3103 17.5613 24.1469 17.2367 23.8559C16.9121 23.5649 16.7297 23.1702 16.7297 22.7586V12.4138C16.7297 12.0023 16.9121 11.6076 17.2367 11.3166C17.5613 11.0256 18.0016 10.8621 18.4607 10.8621Z" fill="#737373"/>
</svg>
