<svg width="256" height="64" viewBox="0 0 256 64" fill="none" xmlns="http://www.w3.org/2000/svg">
<path d="M57.9786 61.1937C56.2851 62.7763 53.6578 62.7852 51.9535 61.2142L39.4854 49.721C39.0119 49.2474 35.2722 52.4043 32.8195 53.2543C30.3911 54.1042 27.8292 54.5292 25.1337 54.5292C21.6854 54.5292 18.4435 53.8492 15.408 52.4893C12.3726 51.1051 9.70136 49.211 7.39441 46.8069C5.08745 44.3785 3.27831 41.5616 1.96698 38.3562C0.655662 35.1507 0 31.7267 0 28.0841C0 24.4416 0.655662 21.0297 1.96698 17.8485C3.27831 14.6431 5.08745 11.8262 7.39441 9.39777C9.70136 6.9694 12.3726 5.07527 15.408 3.71537C18.4435 2.3312 21.6854 1.63911 25.1337 1.63911C28.6063 1.63911 31.8603 2.3312 34.8958 3.71537C37.9312 5.07527 40.6025 6.9694 42.9094 9.39777C45.2164 11.8262 47.0134 14.6431 48.3004 17.8485C49.6117 21.0297 50.2674 24.4416 50.2674 28.0841C50.2674 30.9253 49.8546 33.633 49.0289 36.2071C48.2033 38.7568 44.8946 42.4176 45.6413 43.2736L57.9673 54.7122C59.8509 56.4602 59.8561 59.4392 57.9786 61.1937ZM25.1337 45.6413C26.5422 45.6413 27.9263 45.4349 29.2862 45.0221C30.6461 44.585 33.2953 42.9025 34.4336 41.7642C34.4336 41.7642 36.6871 39.3565 37.5639 38.3493C38.1376 37.6905 39.0119 36.6442 39.0119 36.6442C39.789 35.3814 40.3718 34.0215 40.7603 32.5645C41.1731 31.1075 41.3795 29.614 41.3795 28.0841C41.3795 25.6558 40.9546 23.3852 40.1046 21.2725C39.2547 19.1599 38.0769 17.3021 36.5714 15.6994C35.09 14.0724 33.3659 12.8096 31.3989 11.9111C29.4562 10.9884 27.3678 10.527 25.1337 10.527C22.8996 10.527 20.799 10.9884 18.8321 11.9111C16.8651 12.8339 15.1288 14.1088 13.6232 15.7358C12.1419 17.3386 10.9763 19.1963 10.1263 21.309C9.30068 23.4216 8.88786 25.68 8.88786 28.0841C8.88786 30.4882 9.31282 32.7588 10.1628 34.8957C11.0127 37.0084 12.1783 38.8783 13.6596 40.5053C15.1652 42.108 16.8894 43.3708 18.8321 44.2935C20.799 45.192 22.8996 45.6413 25.1337 45.6413Z" fill="#909090"/>
<path d="M55.4154 34.3858V12.576C55.4154 11.9473 55.925 11.4377 56.5537 11.4377H63.1649C63.7936 11.4377 64.3032 11.9473 64.3032 12.576V32.0546C64.3032 33.4873 64.6553 34.7986 65.3596 35.9885C66.0638 37.1542 66.9987 38.0891 68.1643 38.7933C69.3543 39.4733 70.6535 39.8132 72.0619 39.8132C73.5189 39.8132 74.8303 39.4733 75.9959 38.7933C77.1615 38.0891 78.0964 37.1542 78.8007 35.9885C79.5049 34.7986 79.857 33.4873 79.857 32.0546V18.2675C79.857 14.4955 82.9148 11.4377 86.6868 11.4377H87.6077C88.2359 11.4377 88.7454 11.9466 88.746 12.5748L88.7802 46.7239C88.7808 47.353 88.271 47.8633 87.6418 47.8633H80.8811C80.3818 47.8633 80.0176 47.391 80.1445 46.9081C80.344 46.149 79.2547 45.4597 78.5989 45.8909C77.5111 46.606 76.3233 47.2545 75.3766 47.6812C73.6525 48.434 71.8069 48.8104 69.8399 48.8104C67.193 48.8104 64.7767 48.1669 62.5912 46.8798C60.4057 45.5685 58.6572 43.8322 57.3459 41.6709C56.0589 39.4854 55.4154 37.057 55.4154 34.3858Z" fill="#909090"/>
<path d="M111.531 48.8104C108.18 48.8104 105.12 47.9483 102.352 46.2241C99.6075 44.5 97.4098 42.1809 95.7585 39.2668C94.1315 36.3528 93.318 33.1352 93.318 29.614C93.318 26.9671 93.7915 24.4902 94.7386 22.1832C95.6857 19.852 96.9848 17.8121 98.6361 16.0637C100.312 14.291 102.254 12.9068 104.464 11.9112C106.674 10.9156 109.03 10.4177 111.531 10.4177C114.372 10.4177 116.97 11.0248 119.326 12.239C121.706 13.4289 123.721 15.0681 125.373 17.1565C127.024 19.2449 128.226 21.6247 128.979 24.2959C129.647 26.6658 129.856 29.1313 129.606 31.6923C129.551 32.2567 129.067 32.6738 128.5 32.6738H104C103.371 32.6738 102.899 33.1882 103.124 33.7754C103.447 34.6224 104.019 35.6246 104.537 36.3528C105.314 37.4213 106.298 38.2834 107.488 38.939C108.677 39.5704 110.025 39.8982 111.531 39.9225C113.085 39.9468 114.493 39.5825 115.756 38.8297C118.079 37.4275 120.723 36.1073 123.365 36.7228L127.824 37.7615C127.931 37.7865 127.989 37.9035 127.942 38.0031C126.462 41.1453 124.282 43.7278 121.402 45.7506C118.464 47.7905 115.173 48.8104 111.531 48.8104ZM102.948 24.6542C102.709 25.3377 103.252 26.0079 103.977 26.0079H119.126C119.836 26.0079 120.378 25.36 120.153 24.6858C119.838 23.7463 119.381 22.8756 118.78 22.0739C117.93 20.884 116.873 19.937 115.61 19.2327C114.348 18.5285 112.988 18.1764 111.531 18.1764C110.074 18.1764 108.726 18.5285 107.488 19.2327C106.249 19.9127 105.193 20.8476 104.319 22.0375C103.737 22.8357 103.28 23.708 102.948 24.6542Z" fill="#909090"/>
<path d="M146.445 48.519C144.551 48.3975 142.718 48.0211 140.945 47.3898C139.197 46.7341 137.643 45.8478 136.283 44.7307C134.973 43.6548 133.956 42.3761 133.232 40.8946C133.186 40.8017 133.229 40.6902 133.324 40.6495L138.701 38.3526C139.82 37.8746 141.148 38.2956 142.074 39.0847C142.73 39.619 143.507 40.0682 144.406 40.4325C145.328 40.7967 146.336 40.9789 147.429 40.9789C148.352 40.9789 149.226 40.8574 150.052 40.6146C150.901 40.3475 151.581 39.9468 152.091 39.4126C152.626 38.8783 152.893 38.1862 152.893 37.3363C152.893 36.4378 152.577 35.7457 151.946 35.26C151.339 34.7501 150.561 34.3737 149.614 34.1308C148.692 33.8637 147.793 33.6209 146.919 33.4023C144.612 32.9409 142.463 32.2246 140.472 31.2532C138.505 30.2819 136.914 29.0312 135.7 27.5014C134.51 25.9472 133.915 24.0774 133.915 21.8918C133.915 19.4877 134.546 17.4115 135.809 15.663C137.096 13.9146 138.76 12.5668 140.799 11.6198C142.864 10.6727 145.086 10.1992 147.465 10.1992C150.355 10.1992 153.002 10.8063 155.406 12.0205C157.783 13.1851 159.671 14.8266 161.071 16.945C161.121 17.0204 161.097 17.1218 161.019 17.1678L155.986 20.1407C154.963 20.7447 153.638 20.3753 152.711 19.6334C152.104 19.1235 151.411 18.7106 150.634 18.395C149.857 18.055 149.044 17.8607 148.194 17.8121C147.101 17.7636 146.105 17.8607 145.207 18.1035C144.308 18.3464 143.58 18.7592 143.021 19.342C142.487 19.9248 142.22 20.7019 142.22 21.6733C142.22 22.596 142.584 23.2881 143.313 23.7495C144.041 24.1866 144.916 24.5266 145.935 24.7694C146.98 25.0123 147.975 25.2794 148.922 25.5708C151.059 26.275 153.063 27.1371 154.933 28.157C156.827 29.1769 158.344 30.4276 159.486 31.9089C160.627 33.3902 161.173 35.1629 161.125 37.227C161.125 39.5825 160.421 41.6467 159.012 43.4194C157.604 45.1678 155.783 46.5034 153.548 47.4262C151.339 48.349 148.971 48.7132 146.445 48.519Z" fill="#909090"/>
<path d="M186.883 19.1872C186.883 19.8159 186.373 20.3255 185.745 20.3255H180.955C180.326 20.3255 179.816 20.8351 179.816 21.4638V46.725C179.816 47.3537 179.307 47.8633 178.678 47.8633H172.067C171.438 47.8633 170.929 47.3537 170.929 46.725V21.4638C170.929 20.8351 170.419 20.3255 169.79 20.3255H166.676C166.047 20.3255 165.538 19.8159 165.538 19.1872V12.576C165.538 11.9473 166.047 11.4377 166.676 11.4377H169.79C170.419 11.4377 170.929 10.928 170.929 10.2994V1.1383C170.929 0.509636 171.438 0 172.067 0H178.678C179.307 0 179.816 0.509635 179.816 1.1383V10.2994C179.816 10.928 180.326 11.4377 180.955 11.4377H185.745C186.373 11.4377 186.883 11.9473 186.883 12.576V19.1872Z" fill="#909090"/>
<path d="M208.642 48.8104C205.291 48.8104 202.231 47.9483 199.463 46.2241C196.719 44.5 194.521 42.1809 192.87 39.2668C191.243 36.3528 190.429 33.1352 190.429 29.614C190.429 26.9671 190.903 24.4902 191.85 22.1832C192.797 19.852 194.096 17.8121 195.747 16.0637C197.423 14.291 199.366 12.9068 201.576 11.9112C203.785 10.9156 206.141 10.4177 208.642 10.4177C211.483 10.4177 214.082 11.0248 216.437 12.239C218.817 13.4289 220.833 15.0681 222.484 17.1565C224.135 19.2449 225.337 21.6247 226.09 24.2959C226.758 26.6658 226.967 29.1313 226.717 31.6923C226.662 32.2567 226.179 32.6738 225.612 32.6738H201.431C200.69 32.6738 200.145 33.3725 200.414 34.0624C200.734 34.8818 201.145 35.6453 201.648 36.3528C202.426 37.4213 203.409 38.2834 204.599 38.939C205.789 39.5704 207.137 39.8982 208.642 39.9225C210.196 39.9468 211.605 39.5825 212.868 38.8297C215.19 37.4275 217.834 36.1073 220.476 36.7228L224.837 37.7386C224.995 37.7754 225.08 37.9478 225.01 38.0941C223.531 41.1952 221.365 43.7474 218.514 45.7506C215.575 47.7905 212.285 48.8104 208.642 48.8104ZM200.06 24.6542C199.82 25.3377 200.364 26.0079 201.088 26.0079H216.237C216.948 26.0079 217.489 25.36 217.264 24.6858C216.95 23.7463 216.492 22.8756 215.891 22.0739C215.041 20.884 213.985 19.937 212.722 19.2327C211.459 18.5285 210.099 18.1764 208.642 18.1764C207.185 18.1764 205.837 18.5285 204.599 19.2327C203.36 19.9127 202.304 20.8476 201.43 22.0375C200.848 22.8357 200.391 23.708 200.06 24.6542Z" fill="#909090"/>
<path d="M233.7 47.8633C233.072 47.8633 232.562 47.3544 232.562 46.7261L232.528 12.5771C232.527 11.948 233.037 11.4377 233.666 11.4377H240.489C241.002 11.4377 241.419 11.8504 241.425 12.3632C241.434 13.205 242.505 13.6451 243.181 13.1442C244.007 12.533 244.911 12.0128 245.895 11.5834C247.619 10.8063 249.477 10.4177 251.468 10.4177C252.738 10.4177 254.008 10.5933 255.277 10.9446C255.384 10.9739 255.44 11.0889 255.4 11.1915L253.01 17.3169C252.441 18.7757 250.775 19.4149 249.21 19.4149C247.777 19.4149 246.465 19.767 245.276 20.4712C244.11 21.1512 243.175 22.0861 242.471 23.276C241.791 24.4416 241.451 25.7408 241.451 27.1735V46.725C241.451 47.3537 240.941 47.8633 240.313 47.8633H233.7Z" fill="#909090"/>
<path d="M40.1799 44.7217C38.9217 45.8038 37.008 45.6758 35.9241 44.4192C35.0067 43.3557 34.0115 42.1542 33.1789 40.9738C31.6858 38.857 32.6613 36.3491 34.23 34.2877C34.959 33.3296 35.5721 32.2642 36.0631 30.9897C36.8496 29.1031 37.0542 27.1499 36.6768 25.1298C36.2807 23.088 35.3816 21.252 33.9795 19.6217C32.6147 18.0348 30.9788 16.9459 29.0717 16.3549C27.187 15.7446 25.2474 15.6354 23.253 16.0271C21.2809 16.3996 19.4909 17.2773 17.8828 18.6603C16.2747 20.0434 15.1277 21.6915 14.442 23.6049C13.7786 25.499 13.6075 27.4235 13.9288 29.3783C14.0856 30.3323 14.3667 31.2425 14.772 32.1089C15.4959 33.6562 15.408 35.5938 14.1128 36.7077C12.8176 37.8216 10.8319 37.6883 9.96038 36.2191C8.92547 34.4744 8.24271 32.5955 7.91209 30.5822C7.4169 27.5668 7.68076 24.5982 8.70367 21.6764C9.74892 18.7354 11.5 16.2084 13.9568 14.0954C16.4359 11.9633 19.1965 10.6101 22.2385 10.036C25.3028 9.4426 28.2887 9.61636 31.196 10.5572C34.1033 11.4981 36.5946 13.175 38.6697 15.5878C40.7823 18.0442 42.1218 20.844 42.6881 23.9873C43.2357 27.1089 42.9236 30.1569 41.7516 33.1312C41.1136 34.7387 39.0677 36.2537 39.3324 37.9168C39.4636 38.7406 39.9519 39.6119 40.5499 40.4426C41.5195 41.7894 41.4381 43.6396 40.1799 44.7217Z" fill="#8EE4FF"/>
</svg>
